<svg class="chakra-icon css-1670gd9" aria-hidden="true" xmlns="http://www.w3.org/2000/svg" viewBox="0 0 898.967 872.318"><path d="M446.223 940.528c3.265 2.066 6.688 3.922 9.768 6.234 18.778 14.096 36.918 29.119 56.308 42.308 62.338 42.403 130.94 67.761 206.683 70.244 125.43 4.112 229.042-41.959 308.28-139.593 41.359-50.962 65.725-110.049 73.994-175.302 11.712-92.42-9.328-177.138-63.675-252.64-49.976-69.427-117.533-114.123-200.777-134.114-71.252-17.11-141.094-11.3-208.867 16.565a329.867 329.867 0 0 0-139.725 107.543c-35.003 46.157-56.814 97.956-64.964 155.249-8.01 56.305-2.018 111.237 18.433 164.462 12.24 31.855-1.619 68.194-31.652 83.24-31.315 15.688-68.62 5.698-86.674-24.038-4.971-8.188-8.03-17.707-10.968-26.933a455.344 455.344 0 0 1-21.053-158.331c3.075-73.814 23.123-142.837 59.529-206.923 36.952-65.047 87.007-118.051 150.21-158.288 55.154-35.114 115.115-57.713 179.936-66.676 108.79-15.044 210.113 6.516 302.96 64.98 83.3 52.45 142.259 125.392 177.37 217.462a429.188 429.188 0 0 1 27.711 181.096q-6.938 113.096-68.268 208.66a420.704 420.704 0 0 1-154.013 143.712 415.328 415.328 0 0 1-150.38 48.54c-76.3 9.35-149.674-1.518-219.67-33.374-49.787-22.659-93.407-53.923-128.645-96.115-7.016-8.402-12.9-17.777-18.96-26.932-1.956-2.954-2.805-6.64-4.16-9.992l1.27-1.044Z" transform="translate(-290.92 -238.9)" style="fill:#dcdde1"/><path d="M540.833 707.022c-.441-1.057-.285-2.364-.46-4.103h445.065l39.6 81.275H712.313c6.104 19.162 13.934 36.314 20.659 53.867 6.695 17.479 13.431 34.943 20.678 53.787-16.3.68-31.396.195-47.195.19m98.719-285.412L763.3 500.379h42.192q85.094 91.929 170.144 183.87c.93 1.005 1.402 2.432 2.708 4.776H531.475l-38.812-80.619" transform="translate(-290.92 -238.9)" style="fill:#77bb21"/></svg>